<svg xmlns="http://www.w3.org/2000/svg" viewBox="0 0 100 100">
	<path d="M64.23,5.79a7.73,7.73,0,0,1-1.59-.16L53.75,41.32H72.24V21.47a9.88,9.88,0,0,0-8-15.68Z" style="fill: #db2116"/>
	<path d="M62.64,5.63a6.82,6.82,0,0,1-3.28-1.7,13.64,13.64,0,0,0-18.72,0,7,7,0,0,1-4.87,1.86,9.88,9.88,0,0,0-8,15.68V38.3L50,52.08,66.68,21C69.82,15.18,67.43,7.34,62.64,5.63Z" style="fill: #ff3a2f"/>
	<path d="M62.39,31A12.39,12.39,0,1,0,40,38.3v6.89l10,6.89L60,38.3A12.34,12.34,0,0,0,62.39,31Z" style="fill: #a41910"/>
	<path d="M10.38,24.24a7.64,7.64,0,0,1-.65,1.46L38.05,44.25l1.94-6L27.76,21.47a9.88,9.88,0,0,0-17.38,2.77Z" style="fill: #db2116"/>
	<path d="M9.73,25.7A6.84,6.84,0,0,1,7.1,28.3,13.62,13.62,0,0,0,1.32,46.1a7.06,7.06,0,0,1,.26,5.21A9.89,9.89,0,0,0,14,63.77L30,69,50,52.08,25.56,26.6C21,21.82,12.84,21.67,9.73,25.7Z" style="fill: #ff3a2f"/>
	<path d="M33.78,33.78a12.39,12.39,0,1,0,0,23.56l6.55,2.13L50,52.08,40,38.3a12.34,12.34,0,0,0-6.21-4.52Z" style="fill: #a41910"/>
	<path d="M11.28,81.16a7.53,7.53,0,0,1,1.19,1.07L38.87,61,33.8,57.34,14,63.77A9.88,9.88,0,0,0,11.28,81.16Z" style="fill: #db2116"/>
	<path d="M12.47,82.23a6.73,6.73,0,0,1,1.66,3.3,13.62,13.62,0,0,0,15.14,11,7,7,0,0,1,5,1.36,9.88,9.88,0,0,0,15.69-8L59.89,76.3,50,52.08,18.22,67.45C12.27,70.27,9.6,78,12.47,82.23Z" style="fill: #ff3a2f"/>
	<path d="M27.58,61.85A12.39,12.39,0,1,0,50,69.11l4-5.57L50,52.08,33.8,57.34A12.39,12.39,0,0,0,27.58,61.85Z" style="fill: #a41910"/>
	<path d="M65.69,97.89a7.08,7.08,0,0,1,1.38-.8l-12-31.66L50,69.11v20.8a9.88,9.88,0,0,0,15.69,8Z" style="fill: #db2116"/>
	<path d="M67.07,97.09a6.86,6.86,0,0,1,3.66-.56,13.62,13.62,0,0,0,15.14-11,7,7,0,0,1,2.85-4.37A9.88,9.88,0,0,0,86,63.77L76.09,50.16,50,52.08l4.8,35C55.65,93.58,62.19,98.52,67.07,97.09Z" style="fill: #ff3a2f"/>
	<path d="M52.37,76.42A12.39,12.39,0,1,0,66.2,57.34l-4.05-5.57L50,52.08v17a12.29,12.29,0,0,0,2.37,7.31Z" style="fill: #a41910"/>
	<path d="M98.42,51.31a7.63,7.63,0,0,1-.34-1.56L64.26,51.39l1.94,6L86,63.77A9.89,9.89,0,0,0,98.42,51.31Z" style="fill: #db2116"/>
	<path d="M98.08,49.75a6.84,6.84,0,0,1,.6-3.65A13.62,13.62,0,0,0,92.9,28.3a7.05,7.05,0,0,1-3.28-4.06,9.88,9.88,0,0,0-17.38-2.77L50,52.08l34.75,6.24c6.47,1.21,13.18-3.49,13.33-8.57Z" style="fill: #ff3a2f"/>
	<path d="M73.88,57.35A12.39,12.39,0,1,0,60,38.3L50,52.08l16.2,5.26A12.36,12.36,0,0,0,73.88,57.35Z" style="fill: #a41910"/>
	<path d="M63.59,47.66a4.74,4.74,0,0,0-5.19-7.14A4.74,4.74,0,0,0,50,37.79a4.74,4.74,0,0,0-8.4,2.73,4.74,4.74,0,0,0-5.19,7.14,4.74,4.74,0,0,0,0,8.83,4.75,4.75,0,0,0,5.19,7.15A4.75,4.75,0,0,0,50,66.37a4.75,4.75,0,0,0,8.4-2.73,4.75,4.75,0,0,0,5.19-7.15,4.74,4.74,0,0,0,0-8.83Z" style="fill: #ffd185"/>
	<circle cx="50" cy="51.87" r="9.05" style="fill: #ffba48"/>
	<circle cx="50" cy="51.87" r="3.02" style="fill: #ff7a3c"/>
</svg>
