<svg xmlns="http://www.w3.org/2000/svg" viewBox="0 0 120 120">
	<path fill="#DB2116" d="M74.2,15.8c-0.5,0-1.1-0.1-1.6-0.2l-8.9,35.7h18.5V31.5c3.2-4.4,2.2-10.6-2.2-13.8C78.4,16.4,76.3,15.8,74.2,15.8L74.2,15.8z"/>
	<path fill="#FF3A2F" d="M72.6,15.6c-1.2-0.3-2.4-0.8-3.3-1.7c-5.3-5-13.5-5-18.7,0c-1.3,1.2-3.1,1.9-4.9,1.9c-5.5,0-9.9,4.4-9.9,9.9c0,2.1,0.7,4.1,1.9,5.8v16.8L60,62.1L76.7,31C79.8,25.2,77.4,17.3,72.6,15.6z" />
	<path fill="#A41910" d="M72.4,41c0-6.8-5.5-12.4-12.4-12.4c-6.8,0-12.4,5.5-12.4,12.4c0,2.6,0.8,5.2,2.4,7.3v6.9l10,6.9l10-13.8C71.6,46.2,72.4,43.6,72.4,41z"/>
	<path fill="#DB2116" d="M20.4,34.2c-0.2,0.5-0.4,1-0.7,1.5L48,54.2l1.9-6L37.8,31.5c-3.2-4.4-9.4-5.4-13.8-2.2C22.3,30.5,21,32.3,20.4,34.2z"/>
	<path fill="#FF3A2F" d="M19.7,35.7c-0.6,1.1-1.5,2-2.6,2.6c-6.3,3.5-8.9,11.3-5.8,17.8c0.7,1.6,0.8,3.5,0.3,5.2c-1.7,5.2,1.2,10.8,6.4,12.5c2,0.6,4.1,0.6,6,0L40,79l20-16.9L35.6,36.6C31,31.8,22.8,31.7,19.7,35.7z"/>
	<path fill="#A41910" d="M43.8,43.8c-6.5-2.1-13.5,1.4-15.6,7.9s1.4,13.5,7.9,15.6c2.5,0.8,5.2,0.8,7.7,0l6.6,2.1l9.7-7.4L50,48.3C48.5,46.2,46.3,44.6,43.8,43.8L43.8,43.8z"/>
	<path fill="#DB2116" d="M21.3,91.2c0.4,0.3,0.8,0.7,1.2,1.1L48.9,71l-5.1-3.7L24,73.8c-5.2,1.7-8,7.3-6.3,12.5C18.3,88.2,19.6,89.9,21.3,91.2z"/>
	<path fill="#FF3A2F" d="M22.5,92.2c0.9,0.9,1.4,2.1,1.7,3.3c1.3,7.1,8,11.9,15.1,11c1.8-0.2,3.6,0.3,5,1.4c4.4,3.2,10.6,2.2,13.8-2.2c1.2-1.7,1.9-3.7,1.9-5.8l9.9-13.6L60,62.1L28.2,77.4C22.3,80.3,19.6,88,22.5,92.2z"/>
	<path fill="#A41910" d="M37.6,71.8c-4,5.5-2.8,13.3,2.8,17.3c5.5,4,13.3,2.8,17.3-2.8c1.5-2.1,2.4-4.7,2.4-7.3l4-5.6l-4-11.5l-16.2,5.3C41.3,68.1,39.1,69.7,37.6,71.8z"/>
	<path fill="#DB2116" d="M75.7,107.9c0.4-0.3,0.9-0.6,1.4-0.8l-12-31.7L60,79.1v20.8c0,5.5,4.4,9.9,9.9,9.9C72,109.8,74,109.1,75.7,107.9L75.7,107.9z"/>
	<path fill="#FF3A2F" d="M77.1,107.1c1.1-0.5,2.4-0.7,3.7-0.6c7.2,0.9,13.8-3.9,15.1-11c0.4-1.8,1.4-3.3,2.9-4.4c4.4-3.2,5.4-9.4,2.2-13.8c-1.2-1.7-2.9-2.9-4.9-3.6l-9.9-13.6L60,62.1l4.8,35C65.7,103.6,72.2,108.5,77.1,107.1z"/>
	<path fill="#A41910" d="M62.4,86.4c4,5.5,11.8,6.8,17.3,2.7c5.5-4,6.8-11.8,2.7-17.3c-1.5-2.1-3.7-3.7-6.2-4.5l-4.1-5.6L60,62.1v17C60,81.7,60.8,84.3,62.4,86.4L62.4,86.4z"/>
	<path fill="#DB2116" d="M108.4,61.3c-0.2-0.5-0.3-1-0.3-1.6l-33.8,1.6l1.9,6L96,73.8c5.2,1.7,10.8-1.2,12.4-6.4C109.1,65.4,109.1,63.3,108.4,61.3z"/>
	<path fill="#FF3A2F" d="M108.1,59.7c-0.1-1.2,0.1-2.5,0.6-3.7c3.1-6.5,0.6-14.3-5.8-17.8c-1.6-0.9-2.7-2.3-3.3-4.1c-1.7-5.2-7.3-8-12.4-6.3c-2,0.6-3.7,1.9-4.9,3.6L60,62.1l34.8,6.2C101.2,69.5,107.9,64.8,108.1,59.7z"/>
	<path fill="#A41910" d="M83.9,67.3c6.5-2.1,10.1-9.1,7.9-15.6s-9.1-10.1-15.6-7.9c-2.5,0.8-4.6,2.4-6.2,4.5L60,62.1l16.2,5.3C78.7,68.2,81.4,68.2,83.9,67.3z"/>
	<path fill="#FFD185" d="M73.6,57.7c1.4-2.2,0.8-5.1-1.4-6.5c-1.1-0.7-2.5-0.9-3.8-0.6c-0.2-2.6-2.4-4.6-5-4.5c-1.3,0.1-2.6,0.7-3.4,1.7c-1.7-2-4.6-2.3-6.7-0.7c-1,0.8-1.7,2.1-1.7,3.4c-2.5-0.7-5.1,0.9-5.8,3.4c-0.3,1.3-0.1,2.6,0.6,3.8c-2.4,1-3.6,3.7-2.7,6.1c0.5,1.2,1.5,2.2,2.7,2.7c-1.4,2.2-0.8,5.1,1.5,6.6c1.1,0.7,2.5,0.9,3.7,0.6c0.2,2.6,2.4,4.6,5,4.4c1.3-0.1,2.5-0.7,3.4-1.7c1.7,2,4.7,2.3,6.7,0.6c1-0.8,1.6-2.1,1.7-3.4c2.5,0.7,5.1-0.9,5.8-3.4c0.3-1.3,0.1-2.6-0.6-3.7c2.4-1,3.6-3.7,2.7-6.1C75.8,59.1,74.8,58.1,73.6,57.7z"/>
	<circle fill="#FFBA48" cx="60" cy="61.9" r="9.1"/>
	<circle class="##FF7A3C" cx="60" cy="61.9" r="3"/>
</svg>
